<?xml version="1.0" standalone="no"?>
<!DOCTYPE svg PUBLIC "-//W3C//DTD SVG 20010904//EN"
 "http://www.w3.org/TR/2001/REC-SVG-20010904/DTD/svg10.dtd">
<svg version="1.0" xmlns="http://www.w3.org/2000/svg"
 width="278.000000pt" height="70.000000pt" viewBox="0 0 278.000000 70.000000"
 preserveAspectRatio="xMidYMid meet">

<g transform="translate(0.000000,70.000000) scale(0.100000,-0.100000)"
fill="#000000" stroke="none">
<path d="M60 520 c-19 -19 -20 -33 -20 -203 0 -131 4 -188 13 -200 11 -16 35
-17 242 -15 l230 3 3 208 2 207 -25 10 c-15 6 -116 10 -226 10 -186 0 -200 -1
-219 -20z m80 -50 c0 -27 -3 -30 -30 -30 -27 0 -30 3 -30 30 0 27 3 30 30 30
27 0 30 -3 30 -30z m110 0 c0 -28 -3 -30 -35 -30 -32 0 -35 2 -35 30 0 28 3
30 35 30 32 0 35 -2 35 -30z m250 0 l0 -30 -110 0 -110 0 0 30 0 30 110 0 110
0 0 -30z m-330 -205 l0 -135 -45 0 -45 0 0 135 0 135 45 0 45 0 0 -135z m330
0 l0 -135 -145 0 -145 0 0 135 0 135 145 0 145 0 0 -135z"/>
<path d="M270 315 c0 -12 16 -15 85 -15 69 0 85 3 85 15 0 12 -16 15 -85 15
-69 0 -85 -3 -85 -15z"/>
<path d="M270 215 c0 -12 13 -15 60 -15 47 0 60 3 60 15 0 12 -13 15 -60 15
-47 0 -60 -3 -60 -15z"/>
<path d="M2027 494 c-11 -12 -8 -41 6 -53 19 -15 50 9 45 35 -3 19 -38 31 -51
18z"/>
<path d="M1330 350 l0 -140 43 1 c24 1 48 -1 54 -4 5 -3 26 -2 46 4 48 13 71
55 64 116 -8 71 -59 107 -120 84 -27 -10 -27 -10 -27 34 0 43 -1 45 -30 45
l-30 0 0 -140z m138 -2 c16 -16 15 -53 -2 -68 -21 -17 -58 -8 -67 16 -15 43
38 83 69 52z"/>
<path d="M1135 405 c-97 -48 -64 -198 43 -198 39 0 86 25 96 51 5 10 -8 13
-54 10 -37 -2 -64 2 -72 10 -9 9 4 12 65 12 85 0 88 3 63 64 -8 20 -27 39 -49
49 -43 21 -53 21 -92 2z m75 -60 c11 -13 7 -15 -30 -15 -37 0 -41 2 -30 15 7
8 20 15 30 15 10 0 23 -7 30 -15z"/>
<path d="M2204 413 c-35 -7 -74 -55 -76 -94 -3 -90 90 -144 160 -92 47 35 41
47 -21 40 -41 -4 -59 -2 -67 8 -10 12 1 15 62 17 l73 3 -3 30 c-6 54 -70 99
-128 88z m56 -68 c11 -13 7 -15 -30 -15 -37 0 -41 2 -30 15 7 8 20 15 30 15
10 0 23 -7 30 -15z"/>
<path d="M744 393 c3 -10 9 -36 15 -58 33 -133 28 -125 71 -125 37 0 39 2 45
38 11 65 21 69 35 13 12 -50 13 -51 50 -51 l38 0 25 100 25 100 -29 0 c-24 0
-30 -5 -38 -37 -6 -21 -11 -43 -11 -50 0 -6 -4 -14 -9 -18 -5 -3 -15 20 -21
50 -11 53 -12 55 -45 55 -33 0 -34 -2 -46 -55 -7 -30 -15 -52 -20 -50 -4 3
-12 27 -19 55 -11 46 -14 50 -42 50 -23 0 -28 -4 -24 -17z"/>
<path d="M1600 318 l38 -92 -19 -49 -19 -48 31 3 c29 3 33 9 80 122 68 165 66
156 31 156 -25 0 -32 -6 -46 -45 -10 -25 -21 -47 -26 -50 -5 -3 -17 17 -27 45
-16 46 -20 50 -50 50 l-32 0 39 -92z"/>
<path d="M1802 393 c3 -10 16 -55 28 -100 l23 -83 37 0 37 0 27 93 c14 51 26
96 26 100 0 4 -13 7 -29 7 -27 0 -29 -4 -41 -60 -7 -33 -16 -60 -20 -60 -4 0
-14 26 -22 58 -12 51 -17 57 -42 60 -24 3 -28 0 -24 -15z"/>
<path d="M2020 310 l0 -100 30 0 30 0 0 100 0 100 -30 0 -30 0 0 -100z"/>
<path d="M2370 403 c0 -5 10 -50 22 -100 l22 -93 36 0 c36 0 37 1 49 56 14 63
22 62 36 -4 9 -44 12 -47 46 -50 l36 -3 22 83 c12 46 24 91 27 101 4 13 -1 17
-24 17 -28 0 -30 -3 -42 -60 -7 -33 -16 -58 -20 -55 -3 2 -12 29 -19 60 -12
53 -14 55 -45 55 -33 0 -34 -1 -46 -62 -13 -68 -19 -66 -40 20 -9 35 -15 42
-35 42 -14 0 -25 -3 -25 -7z"/>
</g>
</svg>
